<?xml version="1.0" standalone="no"?><!DOCTYPE svg PUBLIC "-//W3C//DTD SVG 1.1//EN" "http://www.w3.org/Graphics/SVG/1.1/DTD/svg11.dtd"><svg t="1594274103601" class="icon" viewBox="0 0 1024 1024" version="1.1" xmlns="http://www.w3.org/2000/svg" p-id="1231" xmlns:xlink="http://www.w3.org/1999/xlink" width="200" height="200"><defs><style type="text/css"></style></defs><path d="M85.015855 119.406049v136.465341c0 9.421823 7.630274 17.059292 17.052097 17.059292h53.000003l13.645275 119.406049h-15.471c-9.416427 0-17.061091 7.637469-17.061091 17.052096 0 0.77346 0.05756 1.54692 0.154692 2.313186l51.179674 375.277438a17.055694 17.055694 0 0 0 16.899204 14.755101h10.751095l23.473614 206.621768A17.050298 17.050298 0 0 0 255.594383 1023.485559h511.74278a17.050298 17.050298 0 0 0 16.954964-15.12744l23.473615-206.623567h10.7439a17.057493 17.057493 0 0 0 16.906398-14.755101l51.17248-375.277438c1.271712-9.339081-5.263126-17.938878-14.593214-19.21059a16.931581 16.931581 0 0 0-2.30599-0.154692h-15.352283l13.645275-119.406049h52.881286c9.414628 0 17.052097-7.637469 17.052097-17.059292V119.406049a17.052097 17.052097 0 0 0-17.052097-17.052097h-53.787854L852.390791 14.264043A17.062889 17.062889 0 0 0 835.570732 0H187.362612a17.062889 17.062889 0 0 0-16.821857 14.264043l-14.68495 88.08811H102.069751a17.046701 17.046701 0 0 0-17.052097 17.052097z m667.087741 869.966323H270.827949L249.502036 801.73635h523.920279z m51.517839-221.758203H219.310111l-46.51553-341.164251h677.340585z m16.321806-375.277438H202.988305l-13.645275-119.406049H833.52556zM201.808328 34.113187h619.307695l11.362668 68.231771H190.44566zM119.129042 136.465341H903.802503v102.346757H119.129042z m0 0" p-id="1232" fill="#ffffff"></path></svg>